<svg width="1024" height="1024" viewBox="0 0 24 24" fill="none" xmlns="http://www.w3.org/2000/svg">
  <rect width="24" height="24" rx="6" fill="#6366f1"/>
  <g transform="translate(2, -1.25)">
    <path d="M4 20V5.5L10 12L16 5.5V19" stroke="white" stroke-width="2.5" stroke-linecap="round" stroke-linejoin="round"/>
    <circle cx="10" cy="12" r="2" stroke="white" stroke-width="2.5"/>
    <path d="M4 16C4 16 2.5 17.5 2.5 19C2.5 20.5 4 21 4 21C4 21 5.5 20.5 5.5 19C5.5 17.5 4 16 4 16Z" stroke="white" stroke-width="2.5"/>
    <path d="M16 16C16 16 14.5 17.5 14.5 19C14.5 20.5 16 21 16 21C16 21 17.5 20.5 17.5 19C17.5 17.5 16 16 16 16Z" stroke="white" stroke-width="2.5"/>
  </g>
</svg>
